<?xml version="1.0" encoding="iso-8859-1"?>
<!-- Generator: Adobe Illustrator 19.0.0, SVG Export Plug-In . SVG Version: 6.00 Build 0)  -->
<svg version="1.1" id="Layer_1" xmlns="http://www.w3.org/2000/svg" xmlns:xlink="http://www.w3.org/1999/xlink" x="0px" y="0px"
	 viewBox="0 0 473.654 473.654" style="enable-background:new 0 0 473.654 473.654;" xml:space="preserve">
<circle style="fill:#FFD113;" cx="236.827" cy="236.827" r="236.827"/>
<g>
	<path style="fill:#626463;" d="M128.357,202.232c-43.304,0-78.411,35.103-78.411,78.411c0,43.301,35.107,78.411,78.411,78.411
		s78.411-35.111,78.411-78.411C206.769,237.332,171.661,202.232,128.357,202.232z M128.357,350.798
		c-38.746,0-70.158-31.412-70.158-70.158c0-38.749,31.409-70.158,70.158-70.158s70.158,31.405,70.158,70.158
		C198.515,319.386,167.103,350.798,128.357,350.798z"/>
	<path style="fill:#626463;" d="M128.357,271.927c-4.813,0-8.713,3.9-8.713,8.713c0,4.809,3.9,8.713,8.713,8.713
		c4.813,0,8.713-3.904,8.713-8.713C137.07,275.827,133.17,271.927,128.357,271.927z"/>
	<rect x="126.996" y="207.733" style="fill:#626463;" width="2.752" height="146.741"/>
	<rect x="54.99" y="279.72" style="fill:#626463;" width="146.741" height="2.749"/>
	
		<rect x="54.992" y="279.722" transform="matrix(-0.7071 -0.7071 0.7071 -0.7071 20.3599 570.6301)" style="fill:#626463;" width="146.739" height="2.752"/>
	
		<rect x="127.001" y="207.75" transform="matrix(-0.7058 -0.7084 0.7084 -0.7058 19.8407 570.4785)" style="fill:#626463;" width="2.752" height="146.74"/>
	
		<rect x="127.006" y="207.745" transform="matrix(-0.9231 -0.3846 0.3846 -0.9231 138.7737 589.9869)" style="fill:#626463;" width="2.752" height="146.743"/>
	
		<rect x="55.002" y="279.708" transform="matrix(-0.923 -0.3847 0.3847 -0.923 138.7216 589.9199)" style="fill:#626463;" width="146.735" height="2.752"/>
	
		<rect x="55.021" y="279.737" transform="matrix(-0.3806 -0.9247 0.9247 -0.3806 -82.6985 506.8321)" style="fill:#626463;" width="146.735" height="2.748"/>
	
		<rect x="126.984" y="207.755" transform="matrix(-0.3817 -0.9243 0.9243 -0.3817 -82.493 507.0697)" style="fill:#626463;" width="2.745" height="146.743"/>
	<path style="fill:#626463;" d="M356.714,202.232c-43.304,0-78.411,35.103-78.411,78.411c0,43.301,35.107,78.411,78.411,78.411
		s78.411-35.111,78.411-78.411C435.122,237.332,400.018,202.232,356.714,202.232z M356.714,350.798
		c-38.746,0-70.158-31.412-70.158-70.158c0-38.749,31.409-70.158,70.158-70.158s70.158,31.405,70.158,70.158
		C426.869,319.386,395.46,350.798,356.714,350.798z"/>
	<path style="fill:#626463;" d="M356.714,271.927c-4.813,0-8.713,3.9-8.713,8.713c0,4.809,3.9,8.713,8.713,8.713
		s8.713-3.904,8.713-8.713C365.427,275.827,361.527,271.927,356.714,271.927z"/>
	<rect x="355.334" y="207.733" style="fill:#626463;" width="2.752" height="146.741"/>
	<rect x="283.344" y="279.72" style="fill:#626463;" width="146.741" height="2.749"/>
	
		<rect x="283.359" y="279.739" transform="matrix(-0.7071 -0.7071 0.7071 -0.7071 410.1964 732.1356)" style="fill:#626463;" width="146.739" height="2.749"/>
	
		<rect x="355.304" y="207.735" transform="matrix(-0.7064 -0.7078 0.7078 -0.7064 409.6766 732.14)" style="fill:#626463;" width="2.756" height="146.74"/>
	
		<rect x="355.346" y="207.737" transform="matrix(-0.9231 -0.3846 0.3846 -0.9231 577.8949 677.7885)" style="fill:#626463;" width="2.752" height="146.743"/>
	
		<rect x="283.352" y="279.698" transform="matrix(-0.923 -0.3847 0.3847 -0.923 577.8503 677.7502)" style="fill:#626463;" width="146.735" height="2.752"/>
	
		<rect x="283.327" y="279.76" transform="matrix(-0.3806 -0.9247 0.9247 -0.3806 232.4759 717.9865)" style="fill:#626463;" width="146.749" height="2.749"/>
	
		<rect x="355.347" y="207.747" transform="matrix(-0.3817 -0.9243 0.9243 -0.3817 233.0429 718.1314)" style="fill:#626463;" width="2.745" height="146.743"/>
</g>
<g>
	<path style="fill:#357180;" d="M356.71,282.016c-1.832,0-3.508-1.227-3.986-3.081l-42.19-161.411
		c-0.576-2.203,0.744-4.458,2.951-5.033c2.195-0.58,4.458,0.74,5.037,2.951l42.182,161.404c0.576,2.203-0.744,4.458-2.951,5.037
		C357.406,281.975,357.055,282.016,356.71,282.016z"/>
	<path style="fill:#357180;" d="M219.603,284.309c-1.829,0-3.497-1.219-3.986-3.066l-40.35-152.238
		c-0.583-2.203,0.725-4.461,2.932-5.048c2.21-0.58,4.461,0.729,5.048,2.932l40.35,152.234c0.583,2.203-0.725,4.461-2.932,5.048
		C220.31,284.264,219.951,284.309,219.603,284.309z"/>
	<path style="fill:#357180;" d="M186.59,155.002c-2.214,0-4.042-1.75-4.125-3.975c-0.079-2.277,1.698-4.192,3.975-4.274
		l134.812-4.817c2.259-0.157,4.188,1.698,4.274,3.975c0.079,2.277-1.698,4.192-3.975,4.274l-134.812,4.813
		C186.691,155.002,186.642,155.002,186.59,155.002z"/>
	<path style="fill:#357180;" d="M118.728,281.556c-0.662,0-1.331-0.161-1.956-0.497c-2.004-1.081-2.756-3.582-1.672-5.591
		l66.942-124.262c1.081-2.004,3.586-2.752,5.591-1.672c2.004,1.081,2.756,3.583,1.675,5.591l-66.946,124.262
		C121.615,280.775,120.194,281.556,118.728,281.556z"/>
	<path style="fill:#357180;" d="M121.106,278.748c-1.028,0-2.016-0.576-2.491-1.571l-39.06-82.02
		c-0.651-1.369-0.071-3.014,1.305-3.665c1.376-0.654,3.014-0.071,3.665,1.305l39.056,82.02c0.654,1.369,0.075,3.014-1.301,3.665
		C121.903,278.658,121.499,278.748,121.106,278.748z"/>
	<path style="fill:#357180;" d="M243.443,285.225c-1.391,0-2.801-0.423-4.016-1.301c-3.078-2.225-3.777-6.522-1.552-9.603
		l83.755-116.338c2.225-3.078,10.325,9.427,8.104,12.509l-80.704,111.877C247.683,284.23,245.582,285.225,243.443,285.225z"/>
</g>
<g>
	<path style="fill:#626463;" d="M200.191,256.46c-37.751,0-86.051,10.916-86.051,24.382c0,13.47,48.3,24.386,86.051,24.386
		c37.755,0,50.664-10.916,50.664-24.386C250.854,267.376,237.945,256.46,200.191,256.46z"/>
	<path style="fill:#626463;" d="M193.874,114.704c-2.326-0.774-5.041-1.324-8.006-1.634c-3.321-0.438-6.66-0.576-9.824-0.254
		c-1.111,0.112-2.154,0.288-3.164,0.501c-13.885,1.814-24.386,8.115-23.743,14.465c0.654,6.455,12.565,10.542,26.831,9.353
		c2.73,0.011,5.624-0.127,8.623-0.43c15.306-1.552,27.306-6.795,26.809-11.709C211.095,121.933,203.362,117.344,193.874,114.704z"/>
</g>
<g>
	<circle style="fill:#818282;" cx="226.944" cy="280.169" r="13.298"/>
	<circle style="fill:#818282;" cx="226.944" cy="280.169" r="6.417"/>
</g>
<path style="fill:#4B4A4B;" d="M226.944,287.977c-4.297,0-7.797-3.496-7.797-7.793c0-4.301,3.5-7.797,7.797-7.797
	s7.793,3.496,7.793,7.797C234.737,284.484,231.244,287.977,226.944,287.977z M226.944,275.143c-2.782,0-5.045,2.259-5.045,5.045
	c0,2.778,2.259,5.045,5.045,5.045c2.778,0,5.045-2.262,5.045-5.045C231.988,277.402,229.726,275.143,226.944,275.143z"/>
<path style="fill:#818282;" d="M241.382,312.636c0.841,2.386,0.385,4.719-1.013,5.209l0,0c-1.399,0.49-3.212-1.043-4.05-3.437
	l-10.923-31.154c-0.838-2.39-0.381-4.727,1.017-5.213l0,0c1.399-0.49,3.212,1.043,4.05,3.437L241.382,312.636z"/>
<ellipse style="fill:#626463;" cx="238.996" cy="317.078" rx="11.806" ry="4.588"/>
<g>
	<path style="fill:#357180;" d="M165.73,192.259c0,2.876-1.694,5.202-3.784,5.202H82.162c-2.09,0-3.784-2.326-3.784-5.202l0,0
		c0-2.879,1.694-5.205,3.784-5.205h79.788C164.036,187.054,165.73,189.38,165.73,192.259L165.73,192.259z"/>
	<path style="fill:#357180;" d="M365.798,121.592c-0.924,1.896-3.526,2.528-5.811,1.41l-66.531-32.538
		c-2.285-1.118-3.384-3.556-2.457-5.449l0,0c0.927-1.896,3.53-2.524,5.811-1.41l66.535,32.538
		C365.626,117.258,366.725,119.7,365.798,121.592L365.798,121.592z"/>
</g>
<g>
	<path style="fill:#626463;" d="M299.244,87.558c0.165,2.674-0.288,4.876-0.998,4.918l-20.71,1.23
		c-0.711,0.041-1.417-2.098-1.574-4.764l0,0c-0.161-2.678,0.288-4.876,0.998-4.918l20.714-1.23
		C298.381,82.746,299.087,84.885,299.244,87.558L299.244,87.558z"/>
	<path style="fill:#626463;" d="M359.152,116.473c2.472-1.017,4.708-1.309,4.974-0.654l7.898,19.188
		c0.269,0.658-1.522,2.019-3.99,3.037l0,0c-2.483,1.025-4.708,1.313-4.981,0.658l-7.894-19.191
		C354.886,118.859,356.673,117.49,359.152,116.473L359.152,116.473z"/>
</g>
<g>
	<path style="fill:#357180;" d="M329.606,102.191c1.432,1.548,2.143,3.216,1.589,3.728l-16.133,14.895
		c-0.55,0.516-2.158-0.329-3.59-1.881l0,0c-1.436-1.548-2.147-3.22-1.589-3.728l16.133-14.895
		C326.562,99.798,328.178,100.643,329.606,102.191L329.606,102.191z"/>
	<path style="fill:#357180;" d="M349.373,169.545h-3.145c-7.382,0-13.361,5.983-13.361,13.358c0,7.386,5.983,13.361,13.361,13.361
		h3.145C356.752,196.268,356.752,169.545,349.373,169.545z"/>
</g>
<g>
</g>
<g>
</g>
<g>
</g>
<g>
</g>
<g>
</g>
<g>
</g>
<g>
</g>
<g>
</g>
<g>
</g>
<g>
</g>
<g>
</g>
<g>
</g>
<g>
</g>
<g>
</g>
<g>
</g>
</svg>
